<?xml version="1.0" encoding="UTF-8"?>
<svg id="Layer_1" data-name="Layer 1" xmlns="http://www.w3.org/2000/svg" viewBox="0 0 439.06 502.8">
  <defs>
    <style>
      .cls-1 {
        fill: #e1000f;
        fill-rule: evenodd;
      }
    </style>
  </defs>
  <path class="cls-1" d="M103.59,205.06c0,12.83-.52,19.29,4.12,31.76,2.48,6.68,6.69,13.8,11.32,19.01,6.86,7.71,18.11,14.33,28.57,14.33,11.74,0,19.28-1.59,28.97-7.28,2.13-1.25,4.52-2.87,6.26-4.47,6.27-5.75,5.13-3.94,9.15-11.93,1.89-3.74,4.4-10.73,10.36-10.73s15.16,1.14,15.16,8.51-2.88,11.69-5.79,17.14l-8.41,13.41c-12.08,16.57-24.25,27.82-44.89,32.78-18.39,4.41-39.29.83-54.89-9.62-1.12-.75-1.77-1.14-2.8-2.01l-9.99-9.25c-2.62-2.62-6.34-8.1-8.29-11.31-3.1-5.08-5.79-10.8-7.75-16.66-4.21-12.63-5.77-27.21-4.75-41.09,1.78-24.26,10.26-46.26,23.58-66.29.6-.9,1.01-1.36,1.56-2.14l16.95-20.78c.56-.71,1.15-1.22,1.82-1.88l5.79-5.67c1.01-.76,1.12-.85,1.98-1.72,3.38-3.42,6.65-5.8,9.8-8.69l8.47-6.69c3.84-3.07,11.82-8.42,15.85-10.41,1.82-.9,3.21-1.65,5.29-2.48,4.69-1.86,7.99-3.07,13.58-3.07,6.89,0,8.51,3.75,8.51,9.99,0,11.53-6.46,14.6-15.01,19.76-1.38.83-2.32,1.37-3.7,2.21-.66.4-1.13.77-1.78,1.17-5.35,3.27-10.56,7.01-15.29,10.97l-13.5,12.39c-3.49,3.93-9.03,10.17-11.89,14.37-5.77,8.46-11.18,16.23-14.6,26.46-1.68,5.02-3.74,13.45-3.74,19.93h0ZM45.89,201.73c0,7.73-.24,15.08.83,22.84,3.07,22.31,8.42,40.35,18.4,60.38.63,1.26,1.17,2.2,1.84,3.34,6.86,11.79,12.69,20.34,21.57,30.96l21.41,20.39c.99.78,1.86,1.55,2.85,2.33l4.5,3.27c6.77,4.76,13.76,9.5,21.2,13.2,7.14,3.55,14.27,6.99,21.93,9.51l7.76,2.59c2.74.93,5.52,1.57,8.43,2.3,26.75,6.75,57.15,6.44,83.52-.15l12.36-3.54c6.66-2.22,13.26-4.75,19.5-7.87,7.22-3.62,13.97-7.18,20.59-11.59l6.36-4.37c4.24-2.85,7.93-6.41,11.98-9.47,1.15-.87,1.62-1.6,2.74-2.44,1.57-1.17,7.71-6.89,8.14-8.51-2.87-.24-9.42-4.81-11.98-6.51-8.2-5.44-16.64-10.91-24.18-17.25l-25.3-20.93c-7.7-6.11-14.67-13.43-22.87-18.92-3.46,14.87,5.82,35.56-3.26,47.04-5.2,6.57-18.23,8.27-20.94,6.01-3.4-2.82-3.24-24.94-3.53-31.24-.15-3.22-.77-7.23-.75-10.71,0-1.83.06-3.75.02-5.57-.12-5.56-.77-10.7-.75-16.26l-.37-16.64c0-.91.06-2.07,0-2.95-.47-5.95-.36-7.95-.36-14.06,0-1.98,0-3.95,0-5.93,0-2.34-.4-3.07-.38-5.53.02-3.82,0-7.65,0-11.47l.36-16.66c.04-1.97.39-3.07.39-5.53-.01-3.58-.27-8.38,0-11.83.55-6.95.75-14.34,1.52-21.41.64-5.92,1.96-20.82,2.86-25.99.31-1.77.31-3.44.62-5.29.59-3.47.87-6.71,1.64-9.83.8-3.23,1.46-5.79,3.17-8.29l2.65-3.27c6.93-7.16,20.85-14.63,30.43-16.18l4.12-.59c3.36.22,2.54,5.29,2.54,7.62s-3.51,12.64-4.36,15.98c-4.49,17.7-7.48,32.99-10.6,51.54l-1.16,8.83c-1.13,7.48-3.13,25.59-3.11,33.14,0,3.3-.74,6.41-.76,9.59-.01,1.89.09,3.21-.2,4.97l.22,42.38c4.89,0,7.34-5.19,10.94-7.92,4.71-3.57,10.6-9.89,14.67-14.18,4.55-4.8,9.53-11.85,9.53-19.32,0-2.14-2.37-4.29-3.7-5.18,0-4.03,1.22-6.23,4.16-9.16,9.05-8.99,35.87-20.21,34.7,2.49-.54,10.41-6.97,18.26-12.75,25.74-6.1,7.9-12.86,15.22-19.91,22.25-3.86,3.85-4.49,3.52.18,8.14,6.67,6.59,12.96,13.79,20.31,19.63l13.1,10.57c.88.66,1.48,1.13,2.32,1.75.85.64,1.5,1,2.43,1.64.95.65,1.21.93,2.14,1.56l7.48,4.73c3.39,2.04,7.16,3.48,10.7,5.2,5.11,2.48,6.7,3.81,10.23,5.68,1.53-1.12,2.98-4.23,3.94-6.04l5.92-11.47c3.18-6.31,5.59-12.75,7.94-19.8,2.27-6.81,4.17-13.84,5.66-21.71,2.64-13.93,2.8-24.6,2.8-38.99l-.38-7.38c-1.46-19.89-7.04-41.66-16.02-59.44-.65-1.28-.95-2.39-1.6-3.58-3-5.54-6.03-11.13-9.52-16.37-6.99-10.48-14.74-20.03-23.62-28.91l-25.65-20.95c-1.2-.8-2-1.25-3.18-2l-8.07-4.87c-.61-.36-.99-.49-1.72-.87-5.78-3.06-11.71-6.01-17.82-8.44-4.85-1.93-10.26-4.04-15.29-5.42l-16.97-4.12c-1.48-.3-3.03-.42-4.41-.77-4.74-1.2-9.01-.83-13.9-1.63-7.39-1.21-18.4-.77-26.03-.2l-16.24,1.88c-7.15,1.19-14.36,2.99-21.26,5l-15.55,5.53c-5.95,2.48-12.33,5.12-17.82,8.44-5.47,3.32-11.05,6.22-16.16,10.1-1.09.83-1.89,1.32-3.01,2.16-4.94,3.71-10.03,7.52-14.36,11.9-.51.52-.77.82-1.33,1.26l-10.51,10.57c-.64.72-.53.78-1.12,1.47l-11.63,14.63c-5.23,6.87-12.1,18.59-15.42,26.74-2.07,5.09-4.24,9.43-6,14.72-5.44,16.4-6.34,22.38-8.87,38.47-.54,3.46-.19,6.31-.74,9.62-.28,1.7-.15,3.61-.15,5.4Z"/>
  <path class="cls-1" d="M304.43,363.73h0ZM336.23,358.93h0ZM304.43,363.73c.64-2.39,5.6-4.78,7.65-6.04,1.57-.97,1.57-1.26,3.08-.24-.95,1.42-9.69,6.05-10.73,6.29h0ZM411.32,188.79l.37-7.77h1.11c.58,2.19,1.37,1.06,2.17,5.96,1.72,10.5.25,15.55.06,25.12-.04,1.92-.38,2.8-.38,5.16h-.37c0-3.01-.56-4.3-.75-7.02l-.89-6.88c-.63-4.19-1.33-10.64-1.33-14.58h0ZM392.82,144.41h0ZM57.73,105.57h0ZM392.82,144.41c-1.31-.96-.23.27-.92-1.3-.34-.77-.39-1.09-.72-1.87l-2.75-6.86c-2.74-7.39-3.72-9.87-7.33-17.09-4.14-8.28-5.56-10.13-9.62-19.6-.5-1.17-1.12-2.04-1.88-2.93-.87-1.02-1.6-1.8-1.94-3.24,1.49.4,3.43,3.19,4.75,4.86,5.91,7.47,10.81,15.81,13.97,24.87,1.69,4.85,6.32,18.49,6.43,23.16h0ZM57.73,105.57c-.2.87-.34,1.09-.37,2.22,3.5-.08,5.54-6.08,9.62-7.03-.49,1.03-.37.72-.37,2.22,2.35-.2,6.73-6.63,8.4-8.61.58-.69.5-.76,1.13-1.46l7.02-7.4c.82-.8,1.9-1.63,2.93-2.25l12.69-6.91c12.99-7.46,8.26-13.98,11.74-17.48l13.94-10.47c.7-.42,1.07-.55,1.68-.9,8.48-4.9,20.8-9.69,29.97-11.82,0,1.5.12,1.19-.37,2.22,9.87,0,22.53-3.75,32.26-5.83,1.88-.4,3.38-.62,5.3-.99,6.1-1.17,11.21-1.71,17.54-1.69,8.53.03,12.2-4.86,20.71-4.81,2.53.01,3.79-.04,5.9.4,1.96.41,3.4,1.04,5.2,1.46-2.46,3.67-10.1,2.78-14.05,3.7,4.2,5.73,30.82-2.71,41.8,0,2.37.58,9.57,2.64,10.35,5.55-9.54-2.22-3.01,3.14,1.17,5.12,3.25,1.54,6.56,2.65,10.3,2.65-.62-2.33-3.09-2.34-3.33-5.18,7.61,1.77,16.9,7.96,23.52,12.36,1.15.77,2.05,1.26,3.18,2,1.02.67,1.91,1.15,3.01,1.8,7.5,4.4,14.28,9.83,21.18,15.07,2.94,2.23,7.99,7.37,10.2,10.14.76.95,1.52,1.97,2.22,2.96,2.23,3.16,3.39,7.08,4.85,10.68,2.44,6.03,4.79,12.25,8.04,17.85l1.99,3.19c1.16,1.93,2.81,4.46,4.66,5.7.35-.74.53-1.32.74-2.22h1.48c.41,1.53,1.96,2.81,2.81,4.21,3.14,5.21,5.41,10.94,7.92,16.5.42.93.72,1.44,1.16,2.54.66,1.64,1.35,3.05,2.03,5,.66,1.88,1.16,3.21,1.84,5.18.66,1.9,1.27,3.14,1.84,5.19,1.06,3.78,2.24,7.3,3.02,11.03.43,2.05.78,4.08,1.1,5.93,1.68,9.97.19,15.32.85,23.56l.34,6.69c-.02,2.05-.38,2.16,1.13,2.57l.57-4.24c.03-.12.14-.46.17-.57.4-1.11.03-.22.36-.75.36,1.56.22,2.2.46,3.98.14,1.08.47,2.92.63,4.18,2.06,15.75-.96,17.37-4.42,31.42-.63,2.57-1.48,5.07-2.14,7.47l-4.56,14.3c-2.38,6.67-5.25,12.84-8.84,18.9-6.63,11.19-1.7,9.88-4.89,13.97-1.49,1.91-2.66,3.53-4.13,5.49l-7.98,10.88c-.34.51-.47.73-.88,1.34-1.11,1.68-2.51,1.58-4.04,2.99l-13.21,14.9c-1.38,1.86-7.35,8.1-9.61,9.26-1.08.55-1.73.88-3.1,1.33-7.44,2.48-8.39,4.88-14.03,9.65l-5.28,4.33c-4.71,3.49-9.34,6.76-15.03,8.28-1.55.41-2.45.45-3.63,1.18-.62.38-.61.48-1.26.96-3.44,2.54-7.32,3.94-11.36,5.28-1.8.6-5.6,2.12-7.35,2.27.87,1.19,1.37.83,3.11.53,6.83-1.19,1.04,1.44,9.22-3.37,2.98-1.75,6.55-4.63,10.25-4.22,2.08.23,1.81.86.75,2.25-5.55,7.26-23.23,12.07-31.67,13.48-7.73,1.29-18.46-.84-28.23.25-3.87.43-7.6.88-11.52.71-2.15-.09-3.06-.75-5.54-.75,1.25,1.87,3.59,1.88,4.81,3.7-3.25.07-6.21,1.33-9.62,1.48-3.84.17-6.68.84-10.4.41-6.05-.7-3.67-.12-9.52-1.94-4.37-1.36-14.93-2.57-20.03-2.53-4.99.04-14.99-1.8-18.99-3.94-2.54-1.36-4.46-3.17-5.79-5.68,6.01.13,10.97,5.45,18.49,3.7-.07-.06-.17-.24-.2-.17-.03.06-.16-.14-.2-.17-.06-.05-.33-.27-.41-.33-.74-.53-.02-.07-.91-.56-.84-.46-1.35-.67-2.22-1.11-1.62-.81-2.81-1.43-4.43-2.23-1.5-.73-2.82-1.22-4.42-1.87-4.47-1.82-8.85-4.38-13.1-6.51l-6.55-3.07c-.93-.4-1.57-.56-2.35-.98-1.55-.83-1.62-2.19-3.17-3.11-9.46-5.6-18.95-11.28-28.02-17.47-1.38-.94-2.34-1.82-3.55-2.74l-8.42-7.86c-.83-.83-.84-.98-1.5-1.82-.51-.65-.9-.89-1.44-1.52l-1.47-1.86c-6.35-7.75-11.98-16.27-17.65-24.52l-3.84-5.78c-9.73-15.5-16.45-32.65-20.94-50.45-1.35-5.37-2.17-10.51-3.03-16.2-.35-2.29-.3-3.76-.62-6.04-.79-5.65-1.4-11.56.52-16.69.91-2.44,1.86-4.65,2.22-7.4.37-2.85,1.08-5.96,1.06-8.92-.02-4.42.07-8.49-.46-12.49-.58-4.32-1.64-6.27-.92-11.08,1.24-8.29,6.87-26.23,11.38-33.75,1.53-2.54,4.19-5.28,5.02-8.3.58-2.1.01-4.51-.59-5.77-1.26.34-.86.3-1.76,1.2l-4.81,4.44c-3.11,3.11-6.39,6.06-10.77,7.35-.89.26-1.38.22-2.18.78-.69.48-1.13,1.12-1.58,1.75-8.73,12.41-12.14,31.72-13.31,47.71-.79,10.69-1.98,24.73-.77,35.19.21,1.83-.13,4.01.08,5.84l1.06,17.43c.06,3.6.81,7.52,1.46,10.75,1.05,5.24,3.3,15.82,6.69,18.09,2.15-4.47-4.07-22.99-5.28-30.22-.62-3.65-.63-7.05-.63-11.57,1.52,1.02,1.02,1.49,1.55,3.63.34,1.37.74,2.86,1.12,4.43.28,1.18.7,3.1.94,4.24,2.75,13.16,5.73,26.65,9.94,39.26l4.7,11.57c.69,1.37.94,2.67,2.47,3.08-1.16-2.42-2.59-8.05-2.59-10.73,1.9,1.27,3.29,4.72,4.43,6.67,1.35,2.32,2.56,5.09,3.83,7.63,2.58,5.16,4.96,9.87,7.52,15.04.73,1.47,1.29,2.29,1.97,3.57,1.88,3.55,4.48,7.06,6.66,10.36,3.02,4.56,6.59,8.8,9.62,13.31-1.91-.44-1.13-.96-2.96-1.11.88,1.66,1.04,1.56,2.32,2.86,2.63,2.68,4.93,5.74,7.24,8.67,3.17,4.01,7.04,7.18,11.53,9.56-.32-1.2-6.35-7.38-7.85-8.79-.75-.71-1.06-.82-1.85-1.48-1.39-1.16-2.73-1.86-3.24-3.79,1.56.83,2.73,1.4,4.32,2.34,4.24,2.49,7.91,5.56,11.69,8.65,5.03,4.1,9.95,8.33,15.21,12.16l8.35,4.96c.74.37,1.49.72,2.23,1.1,7.4,3.81,19.31,10.73,26.99,10.73v-2.59c2.14,1.13,5.08,2.06,7.45,2.91,2.55.92,5.28,1.88,7.79,2.56,5.55,1.52,10.75,2.79,16.78,3.93,9.24,1.75,18.78,2.83,28.27,2.8,3.56-.01,6.51.76,10.14.15,4.92-.82,9.97.05,14.8-.73,7.46-1.21,14.96-1.95,22.25-4.01,6.49-1.84,9.24-4.24,16.44-4.28,5.56-.02,9-2.64,13.72-4.4.86-.32,1.42-.43,2.17-.79l1.78,1.55c7.05-3.47,10.09-.32,18.62-6.67,1.26-.94,2.33-1.76,3.58-2.7l7.3-5.28c1.1-.76,3.01-2.11,4.22-2.44-.78,1.47-1.07,1.42-1.85,2.59,2.69-.63,17.3-9.58,19.45-11.25l2.84-2.33c.93-.89,1.76-1.74,2.12-3.06-1.78.41-2.48,1.46-3.94,2.34-1.46.88-2.52,1.47-3.9,2.39-2.18,1.45-5.1,5.04-7.69,5.26.27-1,.56-1.18,1.26-2.07,1.47-1.89,3.39-3.31,5.12-4.86.79-.71.91-.94,1.76-1.57,3.65-2.72,8.4-7.81,12.42-10.88.82-.63.97-.92,1.79-1.54l3.48-3.17c1.93-1.52,3.53-3.39,5.15-5.21,5.34-6,13.86-16.38,17.35-22.96.52-.98.77-1.33,1.22-2.11l2.48-4.55c3.93-7.38,7.03-15.18,10.47-22.81.37-.82.54-1.43.98-2.34,4.7-9.6,7.95-19.68,10.56-30.13.89-3.55,1.58-6.89,2.36-10.96.79-4.15,1.64-7.53,1.64-12.05h.37c0,2.26.85,6.52.33,11.05-.23,2.02-1.36,7.17-.85,9.08.5,1.85-.08.08.52.94,3.35-14.37,3.33-28.67,3.33-43.64,0-2.76.03-5.27-.28-7.49-.36-2.56-.28-4.93-.68-7.46-2.88-18.34-2.89-21.43-8.8-38.54-.44-1.28-.6-1.51-1.08-2.62-.97-2.25-1.72-4.86-3.12-6.87-1.05-1.52.02-.57-1.21-1.01,0,5.94,2.96,12.13,2.96,20.71-.74-1.07-6.13-21.47-7.44-25.11l-7.94-20.17c-2.31-5.62-4.98-10.61-7.67-16-.59-1.19-.99-2.09-1.65-3.15-.7-1.12-1.01-1.95-1.7-3.1-3.22-5.33-6.06-10.86-9.68-15.84-3-4.14-5.86-8.22-9.87-11.58-.62-.52-.63-.43-1.27-.95-.67-.54-.68-.59-1.43-1.16-1.05-.79-1.63-1.57-3.12-1.69,1.82,3.44,9.66,12.61,12.79,17.16.75,1.09,1.31,1.42,1.63,2.81-.69-.46-1.22-.79-2-1.32-3.29-2.26-5.83-5.27-8.44-8.2l-4.35-5.64c-.55-.72-.94-1.12-1.49-1.84-.96-1.28-1.85-2.46-2.89-3.76l-3.11-3.55c-1.17-1.16-2.36-2.1-3.24-3.42l-1.42,1.17c-2.75-.73-7.98-4.49-10.57-6.2l-13.23-8.96c-5.66-3.81-11.42-7.11-17.56-10.18-5.14-2.57-10.36-4.82-15.89-6.67-7.19-2.4-14.03-4.69-21.56-6.18-17.55-3.49-28.46-3.6-46.64-3.67-3.86-.01-7.12.74-10.73.74-.47.98-.34.4-.37,1.85-2.43.57-4.66,1.42-7.75,1.49-6.22.15-10.95-1.51-17.02-1.5-8.59.02-13.67,3.8-21.41,6.34l-17.28,5.65c-.72.21-1.15.41-1.63.59-6.12,2.32-12.46,4.38-18.37,7.15-4.17,1.96-8.39,3.86-12.26,6.24-1.06.65-1.98,1.23-3.03,1.78-5.8,3.05-11.35,7.24-16.38,11.36l-2.42,2.02c-.59.47-.61.37-1.26.96-3.48,3.11-7.5,7.68-10.72,10.37-1.55,1.29-1.8.34-3.16,1.28-.45.31-1.86,1.88-2.4,2.41l-6.67,7.02c-.42.49-.67.65-1.1,1.12-.65.72-.53.77-1.12,1.47l-2.03,2.41c-3.59,4.3-6.65,8.86-9.78,13.52-3.74,5.57-7.19,11.75-9.91,17.83-3.15,7.04-6.66,12.7-6.66,21.45,4.34-2.91,6.55-9.31,8.46-14.11.6-1.52,1.14-2.3,1.75-3.8,4.59-11.27,11.31-22.18,19.85-30.83,1.71-1.73,4.14-4.25,6.57-4.9-.77,1.46-1.46,2.98-2.21,4.44l-10.89,16.85c-3.25,4.32-6.5,8.8-6.5,14.58,1.29-.47,2.74-3.61,3.79-4.72.37-.39.56-.51.92-.93,1.12-1.32,1.86-2.4,3.43-3.23Z"/>
  <path class="cls-1" d="M.03,455.46c0,8.16-.51,13.31,2.84,21.2l3.97,7.13c.53.74,1.04,1.47,1.6,2.1,9.04,10.11,22.59,12.3,34.5,6.2,6-3.07,12.52-11.33,15.65-17.64.81-1.62,2.09-3.93,1.93-5.95-.3-3.95-5.97-5-8.06-2.39-2.03,2.53-1.76,5.1-6.72,8.81-3.73,2.79-9.56,5.27-15.77,4.23-11.12-1.87-17-14.43-17-25.16,0-12.33,8.79-25.23,17.86-32.82.69-.58.75-.49,1.47-1.12,3.94-3.51,5.81-4.12,9.01-6.52,2.86-2.15,7.27-6.3,4.6-10.23-2.26-3.33-10.62,1.11-12.31,2.16-2.81,1.76-7.17,5.57-9.97,7.78-1.16.92-1.79,1.92-3.05,2.87-3.07,2.32-8.91,9.88-11.02,13.02l-4.31,7.52c-1.93,4.92-3.47,7.36-4.45,13.31-.33,2.01-.78,3.33-.78,5.51Z"/>
  <path class="cls-1" d="M59.58,426.24l1.38,29.69c.89,5.87,2.47,19.91,5.59,24.37,1.52,2.17,1.5,3.66,8.3-3.3,5.12-5.24,10.58-18.22,19.13-18.22,8.03,0,3.69,26.61,12.74,25.68,2.14-.22,3.27-.69,4.76-1.52.59-.32,1.58-.93,1.99-1.34,2.64-2.6.37-9.48-.48-14.48-.61-3.61-1.07-6.54-1.85-9.98-.6-2.63-2-6.66-3.26-8.57-5.75-8.69-14.21-3.6-19.35,2.54l-8.39,10.47c-1.69,2.19-4.1,5.42-6.87,6.07-.14-1.73-.84-3.53-1.21-5.45-1.57-8.1-1.37-17.32-1.39-25.63l2.97-35.87c-1.52-.13-.83-.37-2.22-.37-4.44,0-9.73,4.44-10.94,7.92-.55,1.57-.89,15.1-.89,17.97Z"/>
  <path class="cls-1" d="M224.17,489.86c1.93.16,6.59,1.31,8.72-3.12.43-.91.49-1.52.7-2.63.4-2.13-.01-4.24.29-6.37l1.02-5.64c1.78,1.19,8.55,9.88,10.44,11.75l6.66,7.02c3.85,3.85,11.19,12.92,15.3,7.35,1.24-1.69,2.15-4.35,2.36-6.89-.19-.74-4.84-3.92-6.02-5.08-3.75-3.69-3.21-2.46-7.03-7.03-1.27-1.52-2.02-1.95-3.97-4.54-6.72-8.91-6.21-5.99,1.57-12.49,4.21-3.52,8.42-6.59,8.42-13.03,0-4.65-8.08-2.91-11.2-.11-3.32,2.97,1.49,2.82-3,8.84-2.22,2.98-9.4,7.94-12.43,8.65,0-2.61.49-5.79.89-8.35,1.03-6.52,3.22-17.1,5.26-23.22.43-1.3.58-2.13,1.01-3.43,2.67-8.1,3.46-9.62,6.58-17.46.8-2.02,2.16-4.64,2.16-7.45-4.43,0-8.18,1.07-11.11,2.58-4.71,2.42-5.45,7.66-7.02,13.69-.48,1.84-.97,3.89-1.4,5.63-1.69,6.75-3.38,16.36-4.41,23.33-.64,4.29-1.02,8.18-1.6,12.46l-1.82,18.89c-.18,2.48-.38,4.21-.38,6.65Z"/>
  <path class="cls-1" d="M279.65,465.08c-.13-1.56-.74-1.96-.74-3.33,0-5.45,2.22-8.64,2.22-15.9-3-1.44-8.58-1.42-10.05-.06-2.53,2.34-3.35,12.59-4.37,16.71-.53,2.14-2.75,10.22-.68,12.51.72.8.75.66,2.04.92,1.5.31,3.65.16,5.58-.21,5.43-1.04,13.52-11.86,18.24-15.41,1.18-.89.54-.78,2.55-.78.99,4.25,1.11,1.33,1.11,8.14,0,1.27-.11,3.22.03,4.41.14,1.21.78,2.43,1.08,3.73,9.2,0,9.6-9.05,17.75-15.16,4.34-3.25,8.3-7.53,10.08-.09.95,3.98.77,14.26,2.87,18.22,3.78,0,6.35.44,9.11-1.62,3.39-2.53,1.62-9.49,1.04-12.97-.88-5.28-1.64-14.36-4.66-17.16-.87-.8-2.03-1.09-3.3-1.13-.7-.02-2.83.47-3.36.64-4.17,1.34-9.95,5.85-13.32,8.51-1.65,1.3-2.58,3.55-5.12,3.76-.43-5.2-.49-11.58-2.59-15.53-3.65,0-5.31,1.44-8.42,4.53-.52.51-.82.77-1.26,1.33-2.94,3.73-9,10.89-12.24,13.65-1.09.92-2.44,1.54-3.6,2.32Z"/>
  <path class="cls-1" d="M342.15,459.53c0,7,3.8,14.05,9.99,14.05,5.86,0,7.25.29,13.16-2,1.81-.7,5.94-2.67,7.55-2.81,2.65,5.53,1.69,18.02-3.23,23.03-4.2,4.28-5.97,5.08-14.15,5.08l-1.4,1.56c1.4,3.12,1.57,4.36,6.95,4.36,20.72,0,23.62-24.94,20.31-41.03-.32-1.54-.56-3.1-1.07-4.47-.64-1.7-1.1-2.26-1.86-3.69-3.88,2.05-5.26,5.83-9.7,10.27-3.95,3.95-13.4,9.55-17.46,3.58-4.96-7.29,2.52-19.03,11.63-19.03,11.36,0,15.01,5.89,18.61-3.21.84-2.12,1.73-5.83,1.73-8.63-4.24-.35-3.04-1.48-12.58-1.48-6.77,0-12.8,1.29-18.38,4.56-5.17,3.04-8.12,8.06-9.34,13.96-.3,1.44-.76,4.33-.76,5.89Z"/>
  <path class="cls-1" d="M207.89,468.04c-1.69,0-5.12-4.55-5.82-5.27-2.19-2.24-3.8-5.04-5-6.46-4.16-4.92-5.05-4.74-12.75,2.95-5.1,5.1-9.77,13.87-13.56-1.42-2.11-8.52-3.49-12.91-11.21-7.08-3.69,2.79-3.8,2.93-3.8,6.56,0,2.66,3.55,10.6,4.59,13.17.94,2.33,5.47,9.77,7.99,9.77,5.5,0,6.73-2.47,10.63-6.38,10.45-10.45,7.88-8.26,16.1,1.47,7.58,8.98,11.03,8.96,16.47.03,3.52-5.78,7.06-12.28,9.37-18.74.58-1.62,1.22-3.62,1.76-5.27l1.52-5.51c-5.84-8.72-8.83,10.67-11.96,16.89-.73,1.46-2.62,5.3-4.32,5.3Z"/>
  <path class="cls-1" d="M137.25,459.16c.71,0,2.91.59,3.57.87,5.42,2.31,6.5,10.17,4.46,14.18-.35.7-1.13,1.94-1.63,2.44-2.99,2.95-10.34,4.04-13.8-.83-5.47-7.7,1.51-16.66,7.41-16.66h0ZM116.17,464.34c0,5.64-.47,8.93,3.79,13.97.76.9,1.15,1.65,2.07,2.37,1.67,1.31,2.9,2.3,4.87,3.27,4.92,2.44,12.77,2.79,17.62-.15,9.96-6.04,11.02-19.24,6.56-28.1-4.69-9.32-22.12-9.54-28.9-3.11-3.23,3.06-6,6.84-6,11.75Z"/>
  <path class="cls-1" d="M423.15,438.08c-1.95-3.69-.5-5.55,3.33-5.55,2.05,0,1.65,4.39-3.33,5.55h0ZM408.73,408.86l.45,6.65c-2.08,1.03-5.63,1.93-5.63,2.97,0,1.88,4.44,3.49,4.44,4.44,0,1.07-.17.63-.72,1.13-1.97,1.8-5.95,3.31-8.16,4.79,1.11,1.66,2.25,2.93,4.33,2.79,2.3-.15,3.85-1.26,5.66-1.68,0,3.02-.74,4.83-.74,7.4-2.07-1.1-1.51-.98-3.33-3.7h-2.22c-.43,1.83-1.69,3.96-2.74,5.4-2.41,3.31-1.16,1.16-3.18,4.96,6.84,0,5.08-7.02,10.85-3.83,4.69,2.59,14.58,9.38,19.47,9.38,12.38,0,6.54-.99,11.84-2.22v-1.48l-14.23-2.41c-1.26-.47-.92.15-1.3-1.29,4.24,0,5.81-1.03,8.14-2.59-.3-1.29-.57-1.93-1.11-2.96,3.38-6.39,0-7.05,0-8.51,0-3.53,6.96-10.77,1.65-14.97-2.31-1.83-2.43-1.07-8.83.39-1.81.41-3.09.89-4.66,1.26,0,1.56-.02,2.01.58,3.12.65,1.2.75,1.28,2.38,1.32-.16,1.91-1.52,4.43-2.23,5.92-.4.83-1.2,2.26-.03,2.45.64.11,2.2-.69,2.74-1.23,2.73-2.75,2.01-8.95,6.92-9.36,0,2.01-1.01,4.81-1.84,5.96-1.07,1.48-.52.33-1.86.33-2.27,0,1.29,4.46,1.48,5.18-1.48.12-3.82.7-5.08,1.21-1.72.69-2.79,1.57-4.16,2.49,0,6.76,1.21,5.66,1.48,8.88-3.11-.72-3.21-.78-5.92-2.59v-3.33c.91-.21,3.7-1.34,3.7-2.22,0-2.21-2.57-2.61-4.07-3.33.44-5.27,4.81-4.13,4.81-6.66,0-1.64-2.63-2.22-4.44-2.22.65-1.35.62-2.72,4.81-3.7-.1-4.52-5.34-.89-1.48-6.66-1.42-2.12-3.39-3.8-6.66-4.07-.33.49-1.17,1.78-1.11,2.59Z"/>
  <path class="cls-1" d="M406.88,489.12c-.25-1.06-.69-2.45-1.11-3.33,1.71-.9,3.23-1.53,4.81-2.59,0,2.74-.49,5.85-3.7,5.92h0ZM406.88,475.06c0-1.4,1.7-2.73,2.59-3.33.82,1.22.74.42.74,2.59-.74.39-3.33,2.12-3.33.74h0ZM425.37,459.53c.44,1.17-.8.53,1.11.74-.12,1.42-2.68,5.17-3.59,6.39-1.53,2.03-3.28,3.69-6.02,4.33.29,1.27.89,2.78,1.89,3.29,1.71.87,2.48-.12,2.55,2.63-2.13.5-3.74.62-4.81,2.22,1.01,1.5,2.44,2.12,4.44,2.59-.05,2.06-.61,2.2-2.44,2.74-1.21.36-3.04.86-4.22.96.7-1.46.74-1.9.74-3.7-5.79-3.06-3.65-.11-8.88,1.11,1.31-2.48,1.93-2.42,4.22-3.92,3.6-2.35,4.19-3.92,3.18-8.29.85-.57,1.01-.96,1.85-1.48.65-.4,1.52-.74,2.22-1.11v-2.22c-1-.08-1.01-.17-1.85-.37,0-6.62-8.32-5.38-12.21-3.33,1.72,7.39,6.46,3.55,7.4,3.33-.32,3.84-5.1,2.72-6.66,2.59v1.85c-1.3.3-4.03,1.98-6.66,2.59,0,2.82.64,1.89,1.85,3.7,3.14,0,2.53.29,4.07-.74-.07,3.18-1.98,3.37-3.92,4.22-1.29.57-.75.62-2,.96.22,2.69,2.03,2.96,4.07,2.96-.48,1.01-.23,1.22-.62,2.34-1.33,3.77-3.37,4.53-3.81,6.17,2.72,1.53,3.89-1.95,6.29-2.59.44,1.88,1.04,1.45,1.48,3.33,2.89-.06,2.31-1.48,7.03-1.48.1-1.22,1-3.16,1.48-4.07,2.1.56,1.21,1.85,3.33,1.85s2.64-.59,4.44-.74c0,5.28-.24,9.73,1.48,13.31,1.77-.94,2.96-1.71,2.96-4.44v-10.73c1.72-.04,2.26-.59,4.39-.33,2.17.26,5.59,1.15,5.59-1.15,0-4.17-8.01-3.17-9.99-2.22v-4.07c2.09-.49,6.48-2.56,0-4.07v-1.85c2.61-1.38,4.44-.87,4.44-4.07-1.22-.64-1.84-.76-3.33-1.11.22-2.61,6.34-4.85,5.18-7.77,0,0-2.09-2.22-3.33-2.22-1.86,0-2.15,1.06-3.33,1.85Z"/>
  <path class="cls-1" d="M173.12,7.93c6.75,0,6.84-1.85,10.73-1.85,3.2,0,5.89.74,8.88.74,5.29,0,10.6-.54,15.44-1.21,4.41-.61,21.82-2.37,26.88-1.53,1.55.26,2.76.04,4.28.16,2.29.17,5.08.84,7.43,1.08,11.4,1.18,5.25.39,13.29.39-1.2-1.64-7.11-2.34-9.71-2.87-5.33-1.08-10.7-1.55-16.39-2.47-2.08-.34-3.92-.12-6.1-.21-13.93-.57-38.71.31-50.76,5.07-1.84.72-3.55,1.18-3.95,2.7Z"/>
  <path class="cls-1" d="M17.69,231.32c.05,1.69.47,2.71.87,4.02l2.82,12.71c1.24,5.93,6.23,27.08,8.27,33.15,1.03,3.07,3.68,10.1,5.93,12.19.76.71.49.69,1.79.8-.28-3.31-2.97-10.23-4.18-13.21l-4.96-12.8c-1.73-4.3-2.81-8.51-3.96-13.42-.39-1.66-3.38-18.35-.75-20.65.31-.27.7-.44.9-.58,0-9.81-1.96-15.85-4.76-24.46-.48-1.47-.43-2.11-1.53-2.91l-.46,25.15Z"/>
  <path class="cls-1" d="M273.36,422.91l.43,2.95c6.8.02,12.14-.12,12.14-9.24-2.13-.5-.25-.74-4.07-.74-2.84,0-6.62,1.32-7.73,3.74-.16.35-.85,2.88-.78,3.29Z"/>
  <path class="cls-1" d="M58.1,327.49c0-6.48-7.48-16.15-11.35-25.26-.89-2.08-3-6.62-4.55-7.65,0,5.6,4.1,14.39,6.36,18.05,1.6,2.6,2.97,5.03,4.66,7.54.84,1.24,1.55,2.42,2.28,3.64,1.13,1.9,1.38,2.86,2.61,3.68Z"/>
  <path class="cls-1" d="M131.7,21.61c3.33.07,1.82,1.33,9.47-1.25,2.29-.77,4.42-1.29,6.48-2.03,2.36-.84,9.57-3.77,11.05-5.97-1.56-.75-5.54.5-7.55.96-6.01,1.37-11.46,3.31-16.87,6.06-1.38.7-2.26,1.02-2.58,2.23Z"/>
  <path class="cls-1" d="M109.14,375.94c1.6-.43.7-1.2,3.75-.06,1.6.6,2.22,1.12,4.02,1.54-.31-1.17-.17-.74-1-1.59-.6-.62-.94-.93-1.58-1.38l-3.72-2.2c-1.24-.72-2.22-1.22-3.54-2.01-1.31-.79-2.27-1.63-3.48-2.44.03,1.35.79,4.46,1.39,5.27,1.02,1.37,2.04,1.03,4.16,2.87Z"/>
  <path class="cls-1" d="M149.45,395.54c-.72-1.07-.97-1.3-2.21-1.86-2.51-1.13-7.38-3.26-9.99-3.32.29,1.09.12.74,2.07,2,1,.65,1.81,1.06,2.82,1.62,2.45,1.37,3.67,1.55,7.32,1.55Z"/>
  <path class="cls-1" d="M276.32,10.88c1.82,0,2.47.39,3.93.88,1.33.45,2.34.7,3.71,1.1,1.91.56,5.9,1.72,7.9,1.72-1.91-2.85-12.08-4.44-15.53-4.44v.74Z"/>
  <path class="cls-1" d="M61.06,314.91c-.12-1.41-4.34-11.49-7.03-12.21.23,2.73,4.49,10.5,7.03,12.21Z"/>
  <path class="cls-1" d="M418.34,462.49c0,7.27,3.33,4.68,3.33,3.33,0-2.41-.08-3.87-2.59-5.55-.38.73-.74,1.09-.74,2.22Z"/>
  <path class="cls-1" d="M127.63,378.53c-1.38-2.06-6.19-6.22-9.25-6.29.41,1.52,5.86,6.29,9.25,6.29Z"/>
</svg>