<?xml version="1.0" encoding="UTF-8"?>
<svg version="1.1" xmlns="http://www.w3.org/2000/svg" width="300" height="300">
<path d="M0 0 C0.92039063 0.79535156 1.84078125 1.59070312 2.7890625 2.41015625 C3.28438477 2.83699707 3.77970703 3.26383789 4.29003906 3.70361328 C11.58081321 10.03385687 17.96951518 16.66494519 23.7890625 24.41015625 C24.50449219 25.34859375 25.21992188 26.28703125 25.95703125 27.25390625 C45.02127096 53.43771158 54.6802425 83.39095833 54.3515625 115.66015625 C54.34763489 116.55169403 54.34370728 117.44323181 54.33966064 118.36178589 C54.25188284 132.53441561 53.14826548 145.83744967 48.7890625 159.41015625 C48.57507813 160.11672363 48.36109375 160.82329102 48.140625 161.55126953 C42.94330299 178.39043245 34.10364904 194.93330935 22.7890625 208.41015625 C21.84231235 209.57020187 20.89570549 210.73036445 19.94921875 211.890625 C13.77021216 219.36973476 7.2937393 226.22454381 -0.2109375 232.41015625 C-0.98800049 233.05283447 -0.98800049 233.05283447 -1.78076172 233.70849609 C-28.45163205 255.40777053 -61.32172229 266.32038343 -95.4609375 265.97265625 C-96.35247528 265.96872864 -97.24401306 265.96480103 -98.16256714 265.96075439 C-112.33519686 265.87297659 -125.63823092 264.76935923 -139.2109375 260.41015625 C-140.27078857 260.08917969 -140.27078857 260.08917969 -141.35205078 259.76171875 C-158.1912137 254.56439674 -174.7340906 245.72474279 -188.2109375 234.41015625 C-189.37098312 233.4634061 -190.5311457 232.51679924 -191.69140625 231.5703125 C-199.17051601 225.39130591 -206.02532506 218.91483305 -212.2109375 211.41015625 C-212.85361572 210.63309326 -212.85361572 210.63309326 -213.50927734 209.84033203 C-238.59085856 179.01222291 -249.7726247 138.57171801 -245.75 99.203125 C-241.93327695 68.47547528 -229.42013809 40.79649211 -209.2109375 17.41015625 C-208.78409668 16.91483398 -208.35725586 16.41951172 -207.91748047 15.90917969 C-201.58723688 8.61840554 -194.95614856 2.22970357 -187.2109375 -3.58984375 C-185.80328125 -4.66298828 -185.80328125 -4.66298828 -184.3671875 -5.7578125 C-129.14397586 -45.96543437 -52.50172439 -44.10447452 0 0 Z " fill="#EB7523" transform="translate(246.2109375,34.58984375)"/>
<path d="M0 0 C5.9127257 2.97228581 10.8001938 8.32969372 13.25 14.5 C14.23005685 21.62862404 13.65344512 27.49483981 9.7421875 33.59375 C6.33306844 37.94885497 2.5566111 40.78843107 -2.75 42.5 C-16.35156137 43.79682292 -16.35156137 43.79682292 -21.8125 40.9375 C-27.99837121 35.80454304 -32.00822432 31.21710035 -33.0703125 23.03125 C-33.55710542 15.49654212 -31.66483956 10.24260202 -26.75 4.5 C-18.99540049 -1.85263802 -9.49483059 -3.70331021 0 0 Z " fill="#FEFBF9" transform="translate(200.75,153.5)"/>
<path d="M0 0 C4.28164788 0.01112116 5.66201621 0.49277188 8.8046875 3.4921875 C10.97701498 6.21274789 12.91497609 9.0757923 14.80712891 11.99609375 C17.07854811 15.395713 19.58282635 18.62573608 22.0625 21.875 C22.08755615 21.27437744 22.1126123 20.67375488 22.13842773 20.05493164 C22.2540528 17.34888563 22.37692936 14.64321717 22.5 11.9375 C22.53931641 10.99197266 22.57863281 10.04644531 22.61914062 9.07226562 C22.66103516 8.17314453 22.70292969 7.27402344 22.74609375 6.34765625 C22.78275146 5.51500244 22.81940918 4.68234863 22.85717773 3.82446289 C23.0625 1.875 23.0625 1.875 24.0625 0.875 C25.72679051 0.77676063 27.39531931 0.74526369 29.0625 0.75 C30.42375 0.74613281 30.42375 0.74613281 31.8125 0.7421875 C34.0625 0.875 34.0625 0.875 35.0625 1.875 C35.15121273 4.90477804 35.1776935 7.91167022 35.16015625 10.94140625 C35.1587413 11.85002914 35.15732635 12.75865204 35.15586853 13.69480896 C35.15025193 16.60907221 35.13769665 19.52325981 35.125 22.4375 C35.11998714 24.40820202 35.11542386 26.37890524 35.11132812 28.34960938 C35.10027711 33.19143559 35.08300138 38.03320495 35.0625 42.875 C24.2187337 43.73571987 24.2187337 43.73571987 19.9140625 40.53125 C19.17929688 39.4896875 18.44453125 38.448125 17.6875 37.375 C17.28740723 36.83198242 16.88731445 36.28896484 16.47509766 35.72949219 C15.30634924 34.1337283 14.1834244 32.50471278 13.0625 30.875 C11.85977466 29.28740255 10.65243177 27.70327586 9.4375 26.125 C8.64371377 25.04321876 7.85164893 23.96016873 7.0625 22.875 C7.03744385 23.44532959 7.0123877 24.01565918 6.98657227 24.60327148 C6.87093451 27.17326157 6.74806376 29.74285527 6.625 32.3125 C6.56602539 33.65924805 6.56602539 33.65924805 6.50585938 35.03320312 C6.46396484 35.88720703 6.42207031 36.74121094 6.37890625 37.62109375 C6.34224854 38.41185303 6.30559082 39.2026123 6.26782227 40.01733398 C6.0625 41.875 6.0625 41.875 5.0625 42.875 C3.20962498 42.94726502 1.35416122 42.9588122 -0.5 42.9375 C-1.51191406 42.92847656 -2.52382812 42.91945312 -3.56640625 42.91015625 C-4.34886719 42.89855469 -5.13132812 42.88695312 -5.9375 42.875 C-5.96214638 37.05428378 -5.9803343 31.23359766 -5.99243164 25.4128418 C-5.99747267 23.43106559 -6.00430538 21.44929311 -6.01293945 19.4675293 C-6.02501515 16.62547891 -6.03073045 13.78347753 -6.03515625 10.94140625 C-6.04031754 10.04974258 -6.04547882 9.15807892 -6.05079651 8.23939514 C-6.05099177 6.11759399 -5.9996003 3.9958922 -5.9375 1.875 C-4.24162031 0.17912031 -2.33052487 0.2680267 0 0 Z " fill="#FEFDFC" transform="translate(124.9375,152.125)"/>
<path d="M0 0 C0.88623047 -0.02449219 1.77246094 -0.04898438 2.68554688 -0.07421875 C8.77751761 -0.10127413 12.32946543 0.83063683 17.3125 4.375 C20.28216296 7.82364085 20.78579748 10.83633967 20.60546875 15.37890625 C20.15084683 18.47639696 18.9925252 20.76162746 17.3125 23.375 C16.3225 24.035 15.3325 24.695 14.3125 25.375 C15.69926886 29.81266037 18.15076538 32.88295219 21.0703125 36.41015625 C22.3125 38.375 22.3125 38.375 22.3125 42.375 C17.8356372 42.98089121 13.7627744 43.2547054 9.3125 42.375 C6.1383331 39.45681431 4.20383905 36.22645407 2.3125 32.375 C1.9825 35.675 1.6525 38.975 1.3125 42.375 C-0.66659398 42.40186553 -2.64578971 42.42133375 -4.625 42.4375 C-5.72714844 42.44910156 -6.82929688 42.46070313 -7.96484375 42.47265625 C-10.6875 42.375 -10.6875 42.375 -11.6875 41.375 C-11.80099161 38.51405783 -11.85168492 35.67816544 -11.85546875 32.81640625 C-11.85879715 31.95691879 -11.86212555 31.09743134 -11.86555481 30.2118988 C-11.8706277 28.39021339 -11.87296302 26.56851864 -11.87280273 24.74682617 C-11.87498803 21.9528071 -11.89313644 19.15918343 -11.91210938 16.36523438 C-11.9150434 14.59895969 -11.91702814 12.83268312 -11.91796875 11.06640625 C-11.92515427 10.22678848 -11.93233978 9.38717072 -11.93974304 8.52210999 C-11.90276549 -0.82171264 -7.97118606 0.01134688 0 0 Z " fill="#FEFAF7" transform="translate(232.6875,152.625)"/>
<path d="M0 0 C1.32 0.66 2.64 1.32 4 2 C4 21.14 4 40.28 4 60 C1.525 60.495 1.525 60.495 -1 61 C-3.48415035 59.12736831 -5.4906951 57.35061322 -7.6484375 55.1484375 C-8.57361679 54.23186874 -8.57361679 54.23186874 -9.51748657 53.29678345 C-10.81738883 52.00096381 -12.10974574 50.6975374 -13.39501953 49.38720703 C-15.36794329 47.38217157 -17.37079006 45.41112257 -19.37890625 43.44140625 C-20.63734499 42.17900267 -21.89392121 40.91473911 -23.1484375 39.6484375 C-23.75037933 39.05864105 -24.35232117 38.4688446 -24.97250366 37.86117554 C-28.92108599 33.77544554 -28.92108599 33.77544554 -29.25463867 30.49780273 C-27.39551346 26.79655541 -24.73744405 24.2461913 -21.77734375 21.38671875 C-21.15726944 20.77230423 -20.53719513 20.15788971 -19.89833069 19.52485657 C-17.92059417 17.56946542 -15.92939183 15.62845936 -13.9375 13.6875 C-12.59218652 12.36225375 -11.2477743 11.03609191 -9.90429688 9.70898438 C-6.61321872 6.46194927 -3.30999568 3.22774404 0 0 Z " fill="#FDFAF8" transform="translate(60,136)"/>
<path d="M0 0 C1.32 0.33 2.64 0.66 4 1 C4 20.8 4 40.6 4 61 C-1.62679548 59.8746409 -1.62679548 59.8746409 -4.15380859 57.37963867 C-4.71723969 56.83204391 -5.28067078 56.28444916 -5.86117554 55.72026062 C-6.45097198 55.1255043 -7.04076843 54.53074799 -7.6484375 53.91796875 C-8.26522369 53.30738113 -8.88200989 52.69679352 -9.51748657 52.06770325 C-10.81500098 50.77727914 -12.10741698 49.48171094 -13.39501953 48.18139648 C-15.37339377 46.18911752 -17.3746381 44.22204692 -19.37890625 42.25585938 C-20.63686892 40.99884751 -21.8934295 39.74043059 -23.1484375 38.48046875 C-23.75037933 37.89178513 -24.35232117 37.3031015 -24.97250366 36.69657898 C-26.62255859 35.00854492 -26.62255859 35.00854492 -29 32 C-28.7040209 28.84832928 -27.55988779 27.17795957 -25.37963867 24.9597168 C-24.83204391 24.39621017 -24.28444916 23.83270355 -23.72026062 23.25212097 C-23.1255043 22.65716324 -22.53074799 22.06220551 -21.91796875 21.44921875 C-21.30738113 20.83101761 -20.69679352 20.21281647 -20.06770325 19.57588196 C-18.77614917 18.27353377 -17.48060773 16.9751295 -16.18139648 15.68041992 C-14.19120504 13.69120323 -12.22329947 11.68161278 -10.25585938 9.66992188 C-8.99869827 8.40755576 -7.74027641 7.14644368 -6.48046875 5.88671875 C-5.89178513 5.28163986 -5.3031015 4.67656097 -4.69657898 4.05314636 C-3.00854492 2.39331055 -3.00854492 2.39331055 0 0 Z " fill="#FEFCFB" transform="translate(101,136)"/>
<path d="M0 0 C0.80308594 0.01417969 1.60617188 0.02835937 2.43359375 0.04296875 C3.64208984 0.05263672 3.64208984 0.05263672 4.875 0.0625 C6.87109375 0.23046875 6.87109375 0.23046875 7.87109375 1.23046875 C7.94381116 3.5836043 7.95480243 5.93880543 7.93359375 8.29296875 C7.92457031 9.58332031 7.91554687 10.87367187 7.90625 12.203125 C7.89464844 13.20214844 7.88304687 14.20117188 7.87109375 15.23046875 C11.83109375 15.23046875 15.79109375 15.23046875 19.87109375 15.23046875 C19.85949219 14.23144531 19.84789062 13.23242188 19.8359375 12.203125 C19.82691406 10.91277344 19.81789062 9.62242188 19.80859375 8.29296875 C19.79699219 7.00519531 19.78539062 5.71742187 19.7734375 4.390625 C19.87109375 1.23046875 19.87109375 1.23046875 20.87109375 0.23046875 C22.8671875 0.0625 22.8671875 0.0625 25.30859375 0.04296875 C26.51322266 0.02169922 26.51322266 0.02169922 27.7421875 0 C29.87109375 0.23046875 29.87109375 0.23046875 31.87109375 2.23046875 C32.05859621 4.93201175 32.12674256 7.52916167 32.1015625 10.23046875 C32.10110428 11.02195312 32.10064606 11.8134375 32.10017395 12.62890625 C32.09715106 14.30340065 32.08926365 15.97789223 32.0769043 17.65234375 C32.05866701 20.22015306 32.05639447 22.78760149 32.05664062 25.35546875 C32.05172469 26.98047188 32.04589604 28.60547255 32.0390625 30.23046875 C32.03794968 31.00132812 32.03683685 31.7721875 32.03569031 32.56640625 C31.98716364 37.99832897 31.98716364 37.99832897 30.87109375 40.23046875 C29.22534809 40.25735026 27.57947962 40.27680998 25.93359375 40.29296875 C25.01707031 40.30457031 24.10054687 40.31617188 23.15625 40.328125 C20.87109375 40.23046875 20.87109375 40.23046875 19.87109375 39.23046875 C19.79795808 36.69997473 19.77861848 34.19742038 19.80859375 31.66796875 C19.81310547 30.95705078 19.81761719 30.24613281 19.82226562 29.51367188 C19.83408511 27.75256862 19.85202112 25.99150839 19.87109375 24.23046875 C15.91109375 24.23046875 11.95109375 24.23046875 7.87109375 24.23046875 C7.88269531 25.30167969 7.89429688 26.37289062 7.90625 27.4765625 C7.91562674 28.87369618 7.92472706 30.27083174 7.93359375 31.66796875 C7.94197266 32.37501953 7.95035156 33.08207031 7.95898438 33.81054688 C7.96762963 35.61740434 7.92329386 37.42434478 7.87109375 39.23046875 C6.87109375 40.23046875 6.87109375 40.23046875 4.875 40.36328125 C4.06933594 40.36070312 3.26367188 40.358125 2.43359375 40.35546875 C1.63050781 40.35804688 0.82742187 40.360625 0 40.36328125 C-2.12890625 40.23046875 -2.12890625 40.23046875 -4.12890625 39.23046875 C-4.17826449 33.99773544 -4.21460574 28.76513699 -4.23876953 23.53222656 C-4.24884056 21.75127808 -4.2624981 19.97034618 -4.27978516 18.18945312 C-4.30398538 15.63277092 -4.31537809 13.0763069 -4.32421875 10.51953125 C-4.33454132 9.72052399 -4.34486389 8.92151672 -4.35549927 8.09829712 C-4.35589851 6.14089655 -4.25131694 4.18403798 -4.12890625 2.23046875 C-2.12890625 0.23046875 -2.12890625 0.23046875 0 0 Z " fill="#FDF8F4" transform="translate(226.12890625,103.76953125)"/>
<path d="M0 0 C0.8146875 0.00257812 1.629375 0.00515625 2.46875 0.0078125 C3.2834375 0.00523438 4.098125 0.00265625 4.9375 0 C6.96875 0.1328125 6.96875 0.1328125 7.96875 1.1328125 C8.10236612 2.95006687 8.17223598 4.77208831 8.21484375 6.59375 C8.24771484 7.70492187 8.28058594 8.81609375 8.31445312 9.9609375 C8.37544644 12.31761544 8.43276316 14.67439152 8.48632812 17.03125 C8.53756836 18.701875 8.53756836 18.701875 8.58984375 20.40625 C8.6148999 21.43153809 8.63995605 22.45682617 8.66577148 23.51318359 C8.7939918 26.36405964 8.7939918 26.36405964 10.96875 29.1328125 C13.46875 29.54947917 13.46875 29.54947917 15.96875 29.1328125 C18.64723546 26.45432704 18.27379006 24.99310389 18.3828125 21.25 C18.42148438 20.08339844 18.46015625 18.91679688 18.5 17.71484375 C18.5309375 16.49152344 18.561875 15.26820312 18.59375 14.0078125 C18.63242188 12.77675781 18.67109375 11.54570313 18.7109375 10.27734375 C18.80544675 7.22942039 18.88819623 4.18113661 18.96875 1.1328125 C22.92875 1.1328125 26.88875 1.1328125 30.96875 1.1328125 C31.07710025 5.46682267 31.15625156 9.79809923 31.21875 14.1328125 C31.26902344 15.96392578 31.26902344 15.96392578 31.3203125 17.83203125 C31.39901061 25.11160611 31.01376701 29.99957371 26.96875 36.1328125 C21.57491951 40.82309988 16.22407112 40.73847559 9.2265625 40.515625 C4.79820192 39.99526608 3.07122348 39.31913662 -0.03125 36.1328125 C-2.6994777 31.6679835 -3.40046753 28.41416906 -3.359375 23.23828125 C-3.35421875 21.95373047 -3.3490625 20.66917969 -3.34375 19.34570312 C-3.3334375 18.68546143 -3.323125 18.02521973 -3.3125 17.3449707 C-3.28106879 15.30857202 -3.27149633 13.27294646 -3.265625 11.23632812 C-3.17663963 0.20770336 -3.17663963 0.20770336 0 0 Z " fill="#FEFCFA" transform="translate(155.03125,103.8671875)"/>
<path d="M0 0 C1.60869594 0.69885971 3.17115538 1.5027412 4.71875 2.328125 C4.19753197 6.08089481 3.72990217 8.88156387 0.71875 11.328125 C-2.35217325 11.36085242 -5.27126381 10.90866741 -8.28125 10.328125 C-8.28125 10.988125 -8.28125 11.648125 -8.28125 12.328125 C-7.44980469 12.63105469 -6.61835938 12.93398437 -5.76171875 13.24609375 C-4.67503906 13.66503906 -3.58835938 14.08398438 -2.46875 14.515625 C-1.38980469 14.92167969 -0.31085938 15.32773438 0.80078125 15.74609375 C4.16618171 17.57070845 5.24470316 18.8246686 6.71875 22.328125 C7.1310137 27.12537537 6.39255878 31.21285529 3.90625 35.328125 C-0.29641716 39.17056355 -3.47680004 39.62230419 -9.15625 39.640625 C-10.34992188 39.65738281 -11.54359375 39.67414063 -12.7734375 39.69140625 C-16.56704715 39.29852685 -19.0037902 38.22744804 -22.28125 36.328125 C-21.77412967 32.60924261 -21.16516785 29.59358261 -19.28125 26.328125 C-14.40625 27.203125 -14.40625 27.203125 -13.28125 28.328125 C-11.28166636 28.36893283 -9.28079746 28.37066856 -7.28125 28.328125 C-6.95125 27.338125 -6.62125 26.348125 -6.28125 25.328125 C-6.95671875 25.14636719 -7.6321875 24.96460938 -8.328125 24.77734375 C-9.22015625 24.52597656 -10.1121875 24.27460938 -11.03125 24.015625 C-11.91296875 23.77199219 -12.7946875 23.52835938 -13.703125 23.27734375 C-16.38808094 22.28879179 -18.17174311 21.25233737 -20.28125 19.328125 C-21.64564276 15.23494672 -22.05177642 11.59783103 -21.28125 7.328125 C-16.35044132 -0.86460327 -9.1475723 -2.69414801 0 0 Z " fill="#FDFBF9" transform="translate(141.28125,104.671875)"/>
<path d="M0 0 C0.928125 0.495 1.85625 0.99 2.8125 1.5 C2.16705571 4.98539917 0.71115603 7.52819057 -1.1875 10.5 C-4.1575 10.17 -7.1275 9.84 -10.1875 9.5 C-10.1875 10.16 -10.1875 10.82 -10.1875 11.5 C-9.51203125 11.74234375 -8.8365625 11.9846875 -8.140625 12.234375 C1.82641762 15.9792176 1.82641762 15.9792176 3.8125 19.5 C4.60784713 24.889746 4.48023956 29.14067304 2.0625 34.0625 C-1.01397346 37.39534624 -2.88102741 38.37879712 -7.4296875 38.80078125 C-9.22792969 38.80658203 -9.22792969 38.80658203 -11.0625 38.8125 C-12.25617188 38.82925781 -13.44984375 38.84601563 -14.6796875 38.86328125 C-18.47329715 38.47040185 -20.9100402 37.39932304 -24.1875 35.5 C-23.4375 28.875 -23.4375 28.875 -21.1875 25.5 C-16.3125 26.375 -16.3125 26.375 -15.1875 27.5 C-13.18791636 27.54080783 -11.18704746 27.54254356 -9.1875 27.5 C-8.8575 26.51 -8.5275 25.52 -8.1875 24.5 C-8.86296875 24.31824219 -9.5384375 24.13648438 -10.234375 23.94921875 C-11.12640625 23.69785156 -12.0184375 23.44648438 -12.9375 23.1875 C-13.81921875 22.94386719 -14.7009375 22.70023438 -15.609375 22.44921875 C-18.29433094 21.46066679 -20.07799311 20.42421237 -22.1875 18.5 C-23.85005366 13.51233902 -24.02032597 8.51631552 -22 3.625 C-16.39396355 -2.94759445 -7.74307237 -3.31170101 0 0 Z " fill="#FEFBFA" transform="translate(214.1875,105.5)"/>
<path d="M0 0 C1.50046875 0.00386719 1.50046875 0.00386719 3.03125 0.0078125 C4.0315625 0.00523437 5.031875 0.00265625 6.0625 0 C8.53125 0.1328125 8.53125 0.1328125 9.53125 1.1328125 C9.63235353 4.0781682 9.67094279 6.9995881 9.6640625 9.9453125 C9.66501923 10.82936768 9.66597595 11.71342285 9.66696167 12.62426758 C9.66764351 14.49723379 9.66578893 16.37020236 9.66162109 18.24316406 C9.65627289 21.12049638 9.66156593 23.99767258 9.66796875 26.875 C9.66730797 28.69010451 9.66602681 30.50520893 9.6640625 32.3203125 C9.66608673 33.18696533 9.66811096 34.05361816 9.67019653 34.9465332 C9.64620009 41.01786241 9.64620009 41.01786241 8.53125 42.1328125 C6.70009117 42.23132421 4.86505067 42.26253879 3.03125 42.2578125 C2.0309375 42.26039063 1.030625 42.26296875 0 42.265625 C-2.46875 42.1328125 -2.46875 42.1328125 -3.46875 41.1328125 C-3.56985353 38.1874568 -3.60844279 35.2660369 -3.6015625 32.3203125 C-3.60251923 31.43625732 -3.60347595 30.55220215 -3.60446167 29.64135742 C-3.60514351 27.76839121 -3.60328893 25.89542264 -3.59912109 24.02246094 C-3.59377289 21.14512862 -3.59906593 18.26795242 -3.60546875 15.390625 C-3.60480797 13.57552049 -3.60352681 11.76041607 -3.6015625 9.9453125 C-3.60358673 9.07865967 -3.60561096 8.21200684 -3.60769653 7.3190918 C-3.57952953 0.19256963 -3.57952953 0.19256963 0 0 Z " fill="#FDF8F4" transform="translate(266.46875,152.8671875)"/>
<path d="M0 0 C0.80566406 0.00257812 1.61132812 0.00515625 2.44140625 0.0078125 C3.64603516 0.00394531 3.64603516 0.00394531 4.875 0 C7.00390625 0.1328125 7.00390625 0.1328125 9.00390625 1.1328125 C9.02855474 6.52628238 9.04674156 11.91971975 9.05883789 17.31323242 C9.06387856 19.14950125 9.07071102 20.98576604 9.0793457 22.82202148 C9.09142297 25.45557651 9.09713706 28.08907866 9.1015625 30.72265625 C9.10672379 31.54869858 9.11188507 32.37474091 9.11720276 33.22581482 C9.1173983 35.19517618 9.06594777 37.16442864 9.00390625 39.1328125 C8.00390625 40.1328125 8.00390625 40.1328125 5.75390625 40.265625 C4.84640625 40.26304687 3.93890625 40.26046875 3.00390625 40.2578125 C1.64265625 40.26167969 1.64265625 40.26167969 0.25390625 40.265625 C-1.99609375 40.1328125 -1.99609375 40.1328125 -2.99609375 39.1328125 C-3.0971263 36.33287653 -3.13579463 33.55812606 -3.12890625 30.7578125 C-3.12986298 29.91814941 -3.1308197 29.07848633 -3.13180542 28.21337891 C-3.13248723 26.43456955 -3.13063292 24.65575773 -3.12646484 22.87695312 C-3.12111658 20.14447474 -3.1264098 17.41216074 -3.1328125 14.6796875 C-3.13215172 12.9557288 -3.13087056 11.23177021 -3.12890625 9.5078125 C-3.13093048 8.68490723 -3.13295471 7.86200195 -3.13504028 7.01416016 C-3.1067121 0.20670883 -3.1067121 0.20670883 0 0 Z " fill="#FDF6F2" transform="translate(266.99609375,103.8671875)"/>
<path d="M0 0 C3.39635708 1.56592165 5.80287606 3.83079911 8.3828125 6.46875 C8.89328125 6.95537109 9.40375 7.44199219 9.9296875 7.94335938 C13.45786003 11.48583531 13.45786003 11.48583531 13.65625 14.1484375 C11.93611406 17.15575 9.68418342 19.53287632 7.2578125 21.96875 C6.77957031 22.48373047 6.30132812 22.99871094 5.80859375 23.52929688 C3.60492952 25.75983506 2.20982987 27.11223637 -0.984375 27.3125 C-4.38073208 25.74657835 -6.78725106 23.48170089 -9.3671875 20.84375 C-9.87765625 20.35712891 -10.388125 19.87050781 -10.9140625 19.36914062 C-14.44223503 15.82666469 -14.44223503 15.82666469 -14.640625 13.1640625 C-12.92048906 10.15675 -10.66855842 7.77962368 -8.2421875 5.34375 C-7.76394531 4.82876953 -7.28570312 4.31378906 -6.79296875 3.78320312 C-4.58930452 1.55266494 -3.19420487 0.20026363 0 0 Z " fill="#FDF9F5" transform="translate(44.4921875,119.84375)"/>
<path d="M0 0 C3.78995513 1.58876339 6.37175677 3.97389547 9.3125 6.8125 C10.66794922 8.09060547 10.66794922 8.09060547 12.05078125 9.39453125 C14 12 14 12 14.125 14.45703125 C12.60371938 17.89575932 10.33663204 20.2841283 7.6875 22.875 C7.20087891 23.38546875 6.71425781 23.8959375 6.21289062 24.421875 C2.67184433 27.94862367 2.67184433 27.94862367 0.0078125 28.15234375 C-3.00924416 26.42076454 -5.37820101 24.13446114 -7.8125 21.6875 C-8.32748047 21.20087891 -8.84246094 20.71425781 -9.37304688 20.21289062 C-10.83203125 18.76171875 -10.83203125 18.76171875 -13 16 C-12.68698277 12.80415698 -11.54380391 11.17926274 -9.27734375 8.984375 C-8.73916016 8.45585938 -8.20097656 7.92734375 -7.64648438 7.3828125 C-7.08251953 6.84398438 -6.51855469 6.30515625 -5.9375 5.75 C-5.36966797 5.19570312 -4.80183594 4.64140625 -4.21679688 4.0703125 C-2.81787531 2.70665786 -1.40980886 1.35239583 0 0 Z " fill="#FDFAF8" transform="translate(85,119)"/>
<path d="M0 0 C3.16872216 0.68885264 4.96142228 2.13674555 7.15625 4.46875 C8.58929064 7.33483129 8.46269155 9.28175783 8.15625 12.46875 C4.99835526 18.04769737 4.99835526 18.04769737 2.15625 19.46875 C-2.26088859 19.83081054 -4.79273583 19.98307609 -8.78125 18.03125 C-11.29892877 14.90322487 -11.88383683 12.69913965 -12.09375 8.73046875 C-11.82279947 6.27921321 -11.35591629 4.93401739 -9.96875 2.90625 C-6.3286049 0.06693683 -4.49425182 -0.29961679 0 0 Z " fill="#EC7828" transform="translate(192.84375,164.53125)"/>
<path d="M0 0 C4.32059959 0.10538048 6.95257477 3.4376987 9.8125 6.3125 C10.32748047 6.79912109 10.84246094 7.28574219 11.37304688 7.78710938 C14.94989695 11.34480631 14.94989695 11.34480631 15.15234375 13.9921875 C13.42773173 16.99710472 11.17668009 19.37631594 8.75 21.8125 C8.27175781 22.32748047 7.79351562 22.84246094 7.30078125 23.37304688 C5.859375 24.83203125 5.859375 24.83203125 3 27 C0.32128906 26.63549805 0.32128906 26.63549805 -2 26 C-2.05785647 22.04172765 -2.09354717 18.0835633 -2.125 14.125 C-2.14175781 12.99707031 -2.15851562 11.86914062 -2.17578125 10.70703125 C-2.18222656 9.63066406 -2.18867188 8.55429688 -2.1953125 7.4453125 C-2.20578613 6.45031738 -2.21625977 5.45532227 -2.22705078 4.43017578 C-2 2 -2 2 0 0 Z " fill="#FDF5F0" transform="translate(26,103)"/>
<path d="M0 0 C4.96406633 0.2292464 7.54452832 2.97177182 10.8125 6.375 C11.31458984 6.87 11.81667969 7.365 12.33398438 7.875 C16 11.60585672 16 11.60585672 16 15 C14.42578125 16.6484375 14.42578125 16.6484375 12.3125 18.375 C9.77754818 20.47628281 7.43958242 22.54272568 5.25 25 C4.5075 25.66 3.765 26.32 3 27 C0.859375 26.625 0.859375 26.625 -1 26 C-1.02886751 21.85418113 -1.04675327 17.70838784 -1.0625 13.5625 C-1.07087891 12.37849609 -1.07925781 11.19449219 -1.08789062 9.97460938 C-1.09111328 8.84990234 -1.09433594 7.72519531 -1.09765625 6.56640625 C-1.10289307 5.52427979 -1.10812988 4.48215332 -1.11352539 3.40844727 C-1 1 -1 1 0 0 Z " fill="#FDF7F3" transform="translate(67,103)"/>
<path d="M0 0 C4.07376031 1.61010527 6.76507069 4.53822271 9.75 7.625 C10.25660156 8.140625 10.76320313 8.65625 11.28515625 9.1875 C12.52803902 10.45383339 13.76465276 11.7263144 15 13 C13.38989473 17.07376031 10.46177729 19.76507069 7.375 22.75 C6.859375 23.25660156 6.34375 23.76320312 5.8125 24.28515625 C4.54616661 25.52803902 3.2736856 26.76465276 2 28 C0.68 27.34 -0.64 26.68 -2 26 C-2.05785647 22.04172765 -2.09354717 18.0835633 -2.125 14.125 C-2.14175781 12.99707031 -2.15851563 11.86914062 -2.17578125 10.70703125 C-2.18222656 9.63066406 -2.18867187 8.55429688 -2.1953125 7.4453125 C-2.20578613 6.45031738 -2.21625977 5.45532227 -2.22705078 4.43017578 C-2 2 -2 2 0 0 Z " fill="#FDF8F4" transform="translate(68,136)"/>
<path d="M0 0 C4.07376031 1.61010527 6.76507069 4.53822271 9.75 7.625 C10.25660156 8.140625 10.76320313 8.65625 11.28515625 9.1875 C12.52803902 10.45383339 13.76465276 11.7263144 15 13 C13.38989473 17.07376031 10.46177729 19.76507069 7.375 22.75 C6.859375 23.25660156 6.34375 23.76320312 5.8125 24.28515625 C4.54616661 25.52803902 3.2736856 26.76465276 2 28 C0.68 27.34 -0.64 26.68 -2 26 C-2.05785647 22.04172765 -2.09354717 18.0835633 -2.125 14.125 C-2.14175781 12.99707031 -2.15851562 11.86914062 -2.17578125 10.70703125 C-2.18222656 9.63066406 -2.18867188 8.55429688 -2.1953125 7.4453125 C-2.20578613 6.45031738 -2.21625977 5.45532227 -2.22705078 4.43017578 C-2 2 -2 2 0 0 Z " fill="#FDF7F3" transform="translate(26,136)"/>
<path d="M0 0 C2.97 0.495 2.97 0.495 6 1 C5.67 2.65 5.34 4.3 5 6 C3.35 6.33 1.7 6.66 0 7 C0 4.69 0 2.38 0 0 Z " fill="#ED7D31" transform="translate(234,164)"/>
</svg>
